<svg width="115" height="44" viewBox="0 0 115 44" fill="none" xmlns="http://www.w3.org/2000/svg">
<path d="M0 35.5097V21.5645H9.49199V24.1779H3.38701V27.5022H8.65569V30.1574H3.38701V35.5097H0Z" fill="#FFF4DE"/>
<path d="M53.0986 35.5097V21.5645H56.4856V27.2095H61.608V21.5645H64.9741V35.5097H61.608V29.9693H56.4856V35.5097H53.0986Z" fill="#FFF4DE"/>
<path d="M71.6989 35.8234C69.9148 35.8234 68.5698 35.3495 67.6638 34.4017C66.7717 33.44 66.3257 32.0322 66.3257 30.1784C66.3257 28.1852 66.7787 26.7565 67.6847 25.8924C68.6046 25.0143 69.9427 24.5752 71.6989 24.5752C72.8837 24.5752 73.8733 24.7773 74.6678 25.1815C75.4762 25.5718 76.0825 26.1781 76.4867 27.0005C76.9049 27.8228 77.1139 28.8821 77.1139 30.1784C77.1139 32.0322 76.647 33.44 75.7131 34.4017C74.7793 35.3495 73.4412 35.8234 71.6989 35.8234ZM71.6989 33.3354C72.2146 33.3354 72.6397 33.2169 72.9743 32.98C73.3227 32.7291 73.5806 32.3737 73.7478 31.9137C73.929 31.4398 74.0196 30.8614 74.0196 30.1784C74.0196 29.3978 73.929 28.7846 73.7478 28.3385C73.5806 27.8786 73.3227 27.551 72.9743 27.3559C72.6258 27.1468 72.2007 27.0423 71.6989 27.0423C71.1692 27.0423 70.7372 27.1468 70.4026 27.3559C70.0681 27.565 69.8172 27.8995 69.65 28.3594C69.4966 28.8055 69.42 29.4118 69.42 30.1784C69.42 31.2377 69.6012 32.0322 69.9636 32.5618C70.3399 33.0776 70.9184 33.3354 71.6989 33.3354Z" fill="#FFF4DE"/>
<path d="M83.1918 35.8225C82.2161 35.8225 81.3519 35.6692 80.5993 35.3625C79.8466 35.0559 79.2612 34.5889 78.843 33.9617C78.4249 33.3205 78.2158 32.4912 78.2158 31.4737V24.9297H81.331V31.2228C81.331 31.8919 81.4774 32.3937 81.7701 32.7282C82.0767 33.0488 82.5576 33.209 83.2127 33.209C83.8817 33.209 84.3626 33.0488 84.6553 32.7282C84.948 32.3937 85.0944 31.8919 85.0944 31.2228V24.9297H88.0214V31.4737C88.0214 32.9791 87.5893 34.0802 86.7252 34.7771C85.861 35.474 84.6832 35.8225 83.1918 35.8225Z" fill="#FFF4DE"/>
<path d="M92.8006 35.8227C92.048 35.8227 91.3998 35.7391 90.8562 35.5718C90.3266 35.4185 89.8248 35.2443 89.3509 35.0491V32.3102C89.6436 32.5054 89.9712 32.7075 90.3335 32.9166C90.6959 33.1117 91.0932 33.272 91.5253 33.3974C91.9713 33.5229 92.4382 33.5856 92.9261 33.5856C93.4279 33.5856 93.7763 33.502 93.9714 33.3347C94.1805 33.1535 94.2851 32.9375 94.2851 32.6866C94.2851 32.4496 94.1805 32.2615 93.9714 32.1221C93.7624 31.9688 93.4906 31.8433 93.1561 31.7457C92.8215 31.6482 92.4661 31.5576 92.0898 31.4739C91.7553 31.4043 91.4207 31.2997 91.0862 31.1603C90.7517 31.007 90.452 30.8049 90.1872 30.554C89.9224 30.3031 89.7063 29.9965 89.5391 29.6341C89.3857 29.2578 89.3091 28.8048 89.3091 28.2751C89.3091 27.5921 89.4415 27.0276 89.7063 26.5816C89.9712 26.1216 90.3196 25.7523 90.7517 25.4735C91.1838 25.1947 91.6507 24.9996 92.1525 24.8881C92.6543 24.7627 93.1421 24.7069 93.616 24.7208C94.4802 24.7487 95.1632 24.8463 95.6649 25.0135C96.1807 25.1669 96.6476 25.369 97.0658 25.6199V28.066C96.5918 27.8012 96.1179 27.5573 95.644 27.3343C95.1841 27.0973 94.6544 26.9788 94.0551 26.9788C93.5115 26.9788 93.1212 27.0625 92.8843 27.2297C92.6473 27.397 92.5288 27.62 92.5288 27.8988C92.5288 28.1636 92.6055 28.3727 92.7588 28.526C92.9261 28.6793 93.1421 28.8048 93.4069 28.9023C93.6718 28.986 93.9645 29.0696 94.2851 29.1532C94.6335 29.2369 94.9889 29.3414 95.3513 29.4668C95.7277 29.5783 96.0761 29.7456 96.3967 29.9686C96.7312 30.1777 96.9961 30.4774 97.1912 30.8676C97.4003 31.244 97.5048 31.7457 97.5048 32.373C97.4909 33.2232 97.2609 33.9062 96.8149 34.4219C96.3688 34.9237 95.7904 35.2861 95.0795 35.5091C94.3826 35.7182 93.623 35.8227 92.8006 35.8227Z" fill="#FFF4DE"/>
<path d="M103.911 35.8234C102.851 35.8234 101.911 35.6074 101.088 35.1753C100.28 34.7293 99.6456 34.102 99.1856 33.2936C98.7396 32.4712 98.5166 31.4956 98.5166 30.3666C98.5166 28.5267 98.9696 27.105 99.8756 26.1014C100.796 25.0839 102.106 24.5752 103.806 24.5752C104.977 24.5752 105.918 24.8261 106.629 25.3279C107.353 25.8296 107.883 26.5614 108.218 27.5231C108.552 28.4849 108.712 29.6557 108.699 31.0356H100.649L100.315 29.0494H106.127L105.667 30.032C105.653 28.903 105.493 28.1086 105.186 27.6486C104.879 27.1886 104.378 26.9586 103.681 26.9586C103.29 26.9586 102.935 27.0562 102.614 27.2514C102.308 27.4465 102.064 27.774 101.883 28.234C101.715 28.68 101.632 29.3003 101.632 30.0948C101.632 31.0983 101.869 31.8719 102.343 32.4155C102.831 32.9591 103.604 33.2309 104.663 33.2309C105.054 33.2309 105.437 33.1891 105.813 33.1054C106.204 33.0079 106.566 32.8964 106.9 32.7709C107.235 32.6455 107.521 32.534 107.758 32.4364V35.1126C107.256 35.3216 106.691 35.4889 106.064 35.6143C105.451 35.7537 104.733 35.8234 103.911 35.8234Z" fill="#FFF4DE"/>
<path d="M14.7582 35.8226C14.117 35.8226 13.5107 35.7599 12.9392 35.6344C12.3817 35.5229 11.8869 35.3348 11.4548 35.0699C11.0366 34.7912 10.7091 34.4218 10.4721 33.9618C10.2352 33.4879 10.1167 32.9025 10.1167 32.2056C10.1167 31.5505 10.2491 30.979 10.5139 30.4912C10.7927 30.0034 11.2109 29.627 11.7684 29.3622C12.3259 29.0974 13.0298 28.965 13.88 28.965C14.3539 28.965 14.8139 29.0137 15.2599 29.1113C15.706 29.2089 16.1032 29.3413 16.4517 29.5086C16.8141 29.6758 17.0998 29.857 17.3089 30.0521L17.4343 31.5575C17.1555 31.3902 16.821 31.2578 16.4308 31.1602C16.0405 31.0627 15.6223 31.0139 15.1763 31.0139C14.4933 31.0139 13.9915 31.1184 13.671 31.3275C13.3643 31.5226 13.211 31.8363 13.211 32.2683C13.211 32.5332 13.2877 32.7701 13.441 32.9792C13.5943 33.1883 13.7964 33.3486 14.0473 33.4601C14.3121 33.5716 14.5839 33.6273 14.8627 33.6273C15.5735 33.6273 16.0684 33.5785 16.3471 33.481C16.6398 33.3834 16.7862 33.1883 16.7862 32.8956V29.0068C16.7862 28.3656 16.5771 27.9057 16.159 27.6269C15.7547 27.3342 15.1763 27.1878 14.4236 27.1878C13.8104 27.1878 13.1901 27.2993 12.5629 27.5223C11.9496 27.7314 11.4478 27.9893 11.0575 28.2959V25.5361C11.4199 25.3131 11.9775 25.1041 12.7301 24.9089C13.4967 24.7138 14.3539 24.6162 15.3017 24.6162C15.6363 24.6162 16.0056 24.6441 16.4098 24.6998C16.8141 24.7556 17.2183 24.8601 17.6225 25.0135C18.0267 25.1528 18.3961 25.3619 18.7306 25.6407C19.079 25.9194 19.3578 26.2749 19.5669 26.707C19.7759 27.139 19.8805 27.6757 19.8805 28.3168L19.8596 33.3137C19.8596 33.9131 19.6575 34.4009 19.2533 34.7772C18.849 35.1396 18.2636 35.4045 17.497 35.5717C16.7444 35.739 15.8314 35.8226 14.7582 35.8226Z" fill="#FFF4DE"/>
<path d="M26.3173 35.823C25.7319 35.823 25.1465 35.7812 24.5611 35.6975C23.9896 35.6279 23.4669 35.4954 22.993 35.3003C22.5331 35.0912 22.1637 34.8125 21.8849 34.464C21.6062 34.1016 21.4668 33.6347 21.4668 33.0632V21.0205H24.5193V26.791L23.9339 25.8083C24.1848 25.5156 24.5053 25.2856 24.8956 25.1184C25.2859 24.9372 25.6831 24.8117 26.0873 24.742C26.4916 24.6723 26.8261 24.6375 27.0909 24.6375C28.652 24.6375 29.8368 25.1114 30.6452 26.0592C31.4675 26.9931 31.8787 28.366 31.8787 30.178C31.8787 31.2373 31.7393 32.1293 31.4606 32.8541C31.1818 33.5789 30.7915 34.1574 30.2897 34.5894C29.788 35.0215 29.2026 35.3351 28.5335 35.5303C27.8645 35.7254 27.1257 35.823 26.3173 35.823ZM26.2755 33.2305C26.8888 33.2305 27.3766 33.112 27.739 32.875C28.1014 32.6241 28.3593 32.2827 28.5126 31.8506C28.6799 31.4185 28.7635 30.9237 28.7635 30.3661C28.7635 29.5717 28.659 28.9375 28.4499 28.4636C28.2408 27.9897 27.9551 27.6482 27.5927 27.4391C27.2303 27.23 26.8121 27.1255 26.3382 27.1255C26.0595 27.1255 25.7528 27.1603 25.4183 27.23C25.0838 27.2997 24.7841 27.4112 24.5193 27.5645V32.2478C24.5193 32.4987 24.5959 32.6938 24.7493 32.8332C24.9026 32.9726 25.1117 33.0771 25.3765 33.1468C25.6553 33.2026 25.9549 33.2305 26.2755 33.2305Z" fill="#FFF4DE"/>
<path d="M38.5333 35.8234C37.474 35.8234 36.5331 35.6074 35.7108 35.1753C34.9024 34.7293 34.2682 34.102 33.8082 33.2936C33.3622 32.4712 33.1392 31.4956 33.1392 30.3666C33.1392 28.5267 33.5922 27.105 34.4981 26.1014C35.4181 25.0839 36.7283 24.5752 38.4287 24.5752C39.5996 24.5752 40.5404 24.8261 41.2513 25.3279C41.976 25.8296 42.5057 26.5614 42.8402 27.5231C43.1747 28.4849 43.335 29.6557 43.3211 31.0356H35.2717L34.9372 29.0494H40.7495L40.2895 30.032C40.2756 28.903 40.1153 28.1086 39.8086 27.6486C39.502 27.1886 39.0002 26.9586 38.3033 26.9586C37.913 26.9586 37.5576 27.0562 37.237 27.2514C36.9304 27.4465 36.6865 27.774 36.5053 28.234C36.338 28.68 36.2544 29.3003 36.2544 30.0948C36.2544 31.0983 36.4913 31.8719 36.9652 32.4155C37.4531 32.9591 38.2266 33.2309 39.286 33.2309C39.6762 33.2309 40.0595 33.1891 40.4359 33.1054C40.8261 33.0079 41.1885 32.8964 41.5231 32.7709C41.8576 32.6455 42.1433 32.534 42.3803 32.4364V35.1126C41.8785 35.3216 41.314 35.4889 40.6868 35.6143C40.0735 35.7537 39.3556 35.8234 38.5333 35.8234Z" fill="#FFF4DE"/>
<path d="M44.6973 35.509V26.0379C44.8924 25.8707 45.2409 25.6825 45.7426 25.4734C46.2444 25.2504 46.8159 25.0553 47.4571 24.888C48.1122 24.7068 48.7673 24.6162 49.4224 24.6162C50.0775 24.6162 50.5932 24.665 50.9695 24.7626C51.3458 24.8601 51.6316 24.9856 51.8267 25.1389V27.4178C51.5898 27.3621 51.2901 27.3202 50.9277 27.2924C50.5653 27.2645 50.189 27.2506 49.7987 27.2506C49.4084 27.2366 49.039 27.2366 48.6906 27.2506C48.3421 27.2645 48.0494 27.2924 47.8125 27.3342V35.509H44.6973Z" fill="#FFF4DE"/>
<path d="M47.7977 37.2518H44.645V43.8891H115V14.8509L79.8227 0L44.645 14.8509V22.9816H47.7977V16.9251L79.8227 3.40161L111.848 16.9251V40.7364H47.7977V37.2518Z" fill="#FFF4DE"/>
</svg>
