<svg width="285" height="109" viewBox="0 0 285 109" fill="none" xmlns="http://www.w3.org/2000/svg">
<path d="M0 88.1263V53.6216H23.486V60.088H8.38047V68.3133H21.4167V74.8831H8.38047V88.1263H0Z" fill="#BFBCB2"/>
<path d="M131.381 88.1263V53.6216H139.762V67.589H152.436V53.6216H160.765V88.1263H152.436V74.4176H139.762V88.1263H131.381Z" fill="#BFBCB2"/>
<path d="M177.405 88.9027C172.99 88.9027 169.662 87.7301 167.421 85.385C165.213 83.0053 164.11 79.5221 164.11 74.9353C164.11 70.0036 165.231 66.4686 167.472 64.3304C169.749 62.1576 173.059 61.0713 177.405 61.0713C180.336 61.0713 182.785 61.5714 184.751 62.5715C186.751 63.5371 188.251 65.0374 189.251 67.0721C190.286 69.1069 190.803 71.7279 190.803 74.9353C190.803 79.5221 189.648 83.0053 187.337 85.385C185.027 87.7301 181.716 88.9027 177.405 88.9027ZM177.405 82.7467C178.681 82.7467 179.733 82.4535 180.56 81.8673C181.423 81.2465 182.061 80.3671 182.474 79.229C182.923 78.0564 183.147 76.6252 183.147 74.9353C183.147 73.004 182.923 71.4865 182.474 70.3829C182.061 69.2448 181.423 68.4344 180.56 67.9515C179.698 67.4342 178.646 67.1756 177.405 67.1756C176.094 67.1756 175.025 67.4342 174.197 67.9515C173.37 68.4689 172.749 69.2966 172.335 70.4346C171.956 71.5382 171.766 73.0385 171.766 74.9353C171.766 77.5563 172.214 79.5221 173.111 80.8326C174.042 82.1087 175.473 82.7467 177.405 82.7467Z" fill="#BFBCB2"/>
<path d="M205.84 88.9027C203.426 88.9027 201.288 88.5233 199.426 87.7646C197.563 87.0059 196.115 85.8505 195.08 84.2986C194.046 82.7122 193.528 80.6602 193.528 78.1426V61.9507H201.236V77.5218C201.236 79.1772 201.598 80.4188 202.323 81.2465C203.081 82.0397 204.271 82.4363 205.892 82.4363C207.547 82.4363 208.737 82.0397 209.462 81.2465C210.186 80.4188 210.548 79.1772 210.548 77.5218V61.9507H217.79V78.1426C217.79 81.8672 216.721 84.5917 214.583 86.3161C212.445 88.0405 209.531 88.9027 205.84 88.9027Z" fill="#BFBCB2"/>
<path d="M229.617 88.9027C227.755 88.9027 226.151 88.6958 224.806 88.2819C223.496 87.9026 222.254 87.4715 221.081 86.9886V80.2118C221.806 80.6947 222.616 81.1947 223.513 81.7121C224.41 82.1949 225.392 82.5915 226.462 82.9019C227.565 83.2123 228.72 83.3675 229.928 83.3675C231.169 83.3675 232.031 83.1605 232.514 82.7467C233.031 82.2983 233.29 81.7638 233.29 81.143C233.29 80.5567 233.031 80.0911 232.514 79.7463C231.997 79.3669 231.324 79.0565 230.497 78.8151C229.669 78.5737 228.789 78.3495 227.858 78.1426C227.031 77.9702 226.203 77.7115 225.375 77.3666C224.547 76.9873 223.806 76.4872 223.151 75.8664C222.495 75.2456 221.961 74.4869 221.547 73.5902C221.168 72.6591 220.978 71.5382 220.978 70.2277C220.978 68.5378 221.306 67.1411 221.961 66.0375C222.616 64.8994 223.478 63.9855 224.547 63.2957C225.617 62.606 226.772 62.1231 228.013 61.8472C229.255 61.5369 230.462 61.3989 231.635 61.4334C233.773 61.5024 235.463 61.7438 236.704 62.1576C237.98 62.537 239.136 63.0371 240.17 63.6578V69.7104C238.998 69.0551 237.825 68.4516 236.653 67.8998C235.515 67.3135 234.204 67.0204 232.721 67.0204C231.376 67.0204 230.41 67.2273 229.824 67.6411C229.238 68.055 228.945 68.6068 228.945 69.2965C228.945 69.9518 229.134 70.4691 229.514 70.8485C229.928 71.2278 230.462 71.5382 231.117 71.7797C231.773 71.9866 232.497 72.1935 233.29 72.4004C234.152 72.6074 235.032 72.866 235.928 73.1764C236.86 73.4523 237.722 73.8661 238.515 74.4179C239.343 74.9353 239.998 75.6767 240.481 76.6424C240.998 77.5736 241.257 78.8151 241.257 80.367C241.222 82.4708 240.653 84.1607 239.55 85.4367C238.446 86.6783 237.015 87.5749 235.256 88.1267C233.531 88.644 231.652 88.9027 229.617 88.9027Z" fill="#BFBCB2"/>
<path d="M257.106 88.9027C254.485 88.9027 252.157 88.3682 250.122 87.299C248.122 86.1954 246.553 84.6435 245.415 82.6432C244.311 80.6085 243.759 78.1943 243.759 75.4009C243.759 70.8485 244.88 67.3308 247.122 64.8477C249.398 62.3301 252.64 61.0713 256.847 61.0713C259.744 61.0713 262.072 61.6921 263.831 62.9336C265.624 64.1752 266.935 65.9858 267.763 68.3654C268.59 70.745 268.987 73.642 268.952 77.0563H249.036L248.208 72.1418H262.589L261.451 74.5731C261.417 71.7797 261.02 69.8139 260.262 68.6758C259.503 67.5377 258.261 66.9687 256.537 66.9687C255.571 66.9687 254.692 67.2101 253.899 67.6929C253.14 68.1757 252.536 68.9862 252.088 70.1243C251.674 71.2279 251.467 72.7626 251.467 74.7283C251.467 77.2114 252.054 79.1255 253.226 80.4705C254.433 81.8155 256.347 82.488 258.968 82.488C259.934 82.488 260.882 82.3846 261.813 82.1776C262.779 81.9362 263.676 81.6603 264.504 81.3499C265.331 81.0396 266.038 80.7637 266.625 80.5222V87.1439C265.383 87.6612 263.986 88.075 262.434 88.3854C260.917 88.7303 259.141 88.9027 257.106 88.9027Z" fill="#BFBCB2"/>
<path d="M36.5161 88.9028C34.9297 88.9028 33.4294 88.7476 32.0155 88.4372C30.636 88.1613 29.4117 87.6957 28.3425 87.0404C27.3079 86.3507 26.4975 85.4368 25.9112 84.2987C25.3249 83.1261 25.0317 81.6776 25.0317 79.9533C25.0317 78.3323 25.3594 76.9184 26.0146 75.7113C26.7044 74.5042 27.739 73.5731 29.1185 72.9178C30.498 72.2625 32.2396 71.9349 34.3434 71.9349C35.5159 71.9349 36.654 72.0556 37.7576 72.297C38.8612 72.5384 39.8441 72.8661 40.7063 73.2799C41.603 73.6938 42.31 74.1421 42.8273 74.6249L43.1377 78.3496C42.4479 77.9357 41.6202 77.6081 40.6546 77.3667C39.6889 77.1253 38.6543 77.0046 37.5507 77.0046C35.8608 77.0046 34.6193 77.2632 33.8261 77.7805C33.0673 78.2634 32.688 79.0393 32.688 80.1084C32.688 80.7637 32.8776 81.35 33.257 81.8673C33.6364 82.3846 34.1364 82.7812 34.7572 83.0571C35.4125 83.333 36.085 83.471 36.7747 83.471C38.5336 83.471 39.7579 83.3503 40.4477 83.1089C41.1719 82.8674 41.534 82.3846 41.534 81.6604V72.0384C41.534 70.4519 41.0167 69.3139 39.9821 68.6241C38.9819 67.8999 37.5507 67.5377 35.6884 67.5377C34.1709 67.5377 32.6362 67.8136 31.0843 68.3654C29.5668 68.8828 28.3253 69.5208 27.3596 70.2795V63.451C28.2563 62.8992 29.6358 62.3819 31.4981 61.899C33.395 61.4162 35.5159 61.1748 37.8611 61.1748C38.6888 61.1748 39.6027 61.2438 40.6028 61.3817C41.603 61.5197 42.6031 61.7783 43.6033 62.1577C44.6034 62.5026 45.5173 63.0199 46.345 63.7096C47.2072 64.3994 47.897 65.2788 48.4143 66.3479C48.9316 67.417 49.1902 68.7448 49.1902 70.3312L49.1385 82.695C49.1385 84.178 48.6384 85.385 47.6383 86.3162C46.6382 87.2129 45.1897 87.8681 43.2929 88.282C41.4306 88.6958 39.1716 88.9028 36.5161 88.9028Z" fill="#BFBCB2"/>
<path d="M65.1169 88.9026C63.6684 88.9026 62.2199 88.7991 60.7715 88.5922C59.3575 88.4198 58.0642 88.0921 56.8916 87.6093C55.7535 87.092 54.8396 86.4022 54.1499 85.5401C53.4601 84.6434 53.1152 83.4881 53.1152 82.0741V52.2769H60.668V66.5547L59.2195 64.1233C59.8403 63.3991 60.6335 62.83 61.5992 62.4162C62.5648 61.9678 63.5477 61.6575 64.5478 61.485C65.548 61.3126 66.3757 61.2264 67.0309 61.2264C70.8936 61.2264 73.825 62.3989 75.8253 64.7441C77.86 67.0548 78.8774 70.4518 78.8774 74.9351C78.8774 77.5562 78.5325 79.7634 77.8428 81.5568C77.153 83.3501 76.1874 84.7813 74.9458 85.8504C73.7043 86.9196 72.2558 87.6955 70.6004 88.1784C68.945 88.6612 67.1172 88.9026 65.1169 88.9026ZM65.0134 82.4879C66.5309 82.4879 67.7379 82.1948 68.6346 81.6085C69.5313 80.9877 70.1693 80.1428 70.5487 79.0737C70.9625 78.0045 71.1694 76.7802 71.1694 75.4007C71.1694 73.4349 70.9108 71.8658 70.3935 70.6932C69.8762 69.5206 69.1692 68.6757 68.2725 68.1584C67.3758 67.641 66.3412 67.3824 65.1686 67.3824C64.4789 67.3824 63.7201 67.4686 62.8924 67.641C62.0647 67.8135 61.3233 68.0894 60.668 68.4687V80.0565C60.668 80.6773 60.8577 81.1601 61.237 81.505C61.6164 81.8499 62.1337 82.1086 62.789 82.281C63.4787 82.4189 64.2202 82.4879 65.0134 82.4879Z" fill="#BFBCB2"/>
<path d="M95.3428 88.9027C92.7217 88.9027 90.3938 88.3682 88.359 87.299C86.3588 86.1954 84.7896 84.6435 83.6515 82.6432C82.5479 80.6085 81.9961 78.1943 81.9961 75.4009C81.9961 70.8485 83.1169 67.3308 85.3586 64.8477C87.6348 62.3301 90.8766 61.0713 95.0841 61.0713C97.9811 61.0713 100.309 61.6921 102.068 62.9336C103.861 64.1752 105.172 65.9858 105.999 68.3654C106.827 70.745 107.224 73.642 107.189 77.0563H87.2727L86.445 72.1418H100.826L99.6882 74.5731C99.6537 71.7797 99.2571 69.8139 98.4984 68.6758C97.7396 67.5377 96.4981 66.9687 94.7737 66.9687C93.8081 66.9687 92.9286 67.2101 92.1354 67.6929C91.3767 68.1757 90.7732 68.9862 90.3248 70.1243C89.911 71.2279 89.7041 72.7626 89.7041 74.7283C89.7041 77.2114 90.2903 79.1255 91.4629 80.4705C92.67 81.8155 94.584 82.488 97.2051 82.488C98.1707 82.488 99.1191 82.3846 100.05 82.1776C101.016 81.9362 101.913 81.6603 102.74 81.3499C103.568 81.0396 104.275 80.7637 104.861 80.5222V87.1439C103.62 87.6612 102.223 88.075 100.671 88.3854C99.1536 88.7303 97.3775 88.9027 95.3428 88.9027Z" fill="#BFBCB2"/>
<path d="M110.594 88.1268V64.6925C111.077 64.2787 111.939 63.8131 113.181 63.2958C114.422 62.744 115.836 62.2612 117.423 61.8473C119.044 61.399 120.665 61.1748 122.286 61.1748C123.906 61.1748 125.182 61.2955 126.114 61.5369C127.045 61.7783 127.752 62.0887 128.235 62.4681V68.1068C127.648 67.9688 126.907 67.8654 126.01 67.7964C125.113 67.7274 124.182 67.6929 123.217 67.6929C122.251 67.6585 121.337 67.6585 120.475 67.6929C119.613 67.7274 118.888 67.7964 118.302 67.8999V88.1268H110.594Z" fill="#BFBCB2"/>
<path d="M118.265 92.4376H110.464V108.86H284.544V37.0112L197.504 0.265625L110.464 37.0112V57.129H118.265V42.1433L197.504 8.68222L276.743 42.1433V101.059H118.265V92.4376Z" fill="#BFBCB2"/>
</svg>
