<svg width="55" height="54" viewBox="0 0 55 54" fill="none" xmlns="http://www.w3.org/2000/svg">
<path d="M9.64197 0.740723H45.358C50.6543 0.740723 55 5.0864 55 10.3827V34.5555C55 39.8518 50.6543 44.1975 45.358 44.1975H30.5556L13.716 53.0247V44.1975H9.64197C4.34568 44.1975 0 39.8518 0 34.5555V10.3827C0 5.0864 4.34568 0.740723 9.64197 0.740723ZM45.358 3.99998H9.64197C6.11111 3.99998 3.25926 6.85183 3.25926 10.3827V34.5555C3.25926 38.0864 6.11111 40.9383 9.64197 40.9383H16.9753V47.7284L29.7407 40.9383H45.358C48.8889 40.9383 51.7407 38.0864 51.7407 34.5555V10.3827C51.7407 6.85183 48.8889 3.99998 45.358 3.99998Z" fill="black"/>
<path d="M16.0261 16.6293C15.2112 16.6293 14.5322 15.9503 14.5322 14.9997C14.5322 14.1848 15.2112 13.5058 16.0261 13.5058H26.2112C27.1619 13.5058 27.8409 14.1848 27.8409 14.9997C27.8409 15.9503 27.1619 16.6293 26.2112 16.6293H16.0261Z" fill="black"/>
<path d="M16.0261 24.0986C15.2112 24.0986 14.5322 23.4196 14.5322 22.469C14.5322 21.5184 15.2112 20.8394 16.0261 20.8394H38.8409C39.7915 20.8394 40.4705 21.5184 40.4705 22.469C40.4705 23.4196 39.7915 24.0986 38.8409 24.0986H16.0261Z" fill="black"/>
<path d="M16.0261 31.5678C15.2112 31.5678 14.5322 30.753 14.5322 29.9382C14.5322 28.9875 15.2112 28.3085 16.0261 28.3085H38.8409C39.7915 28.3085 40.4705 28.9875 40.4705 29.9382C40.4705 30.753 39.7915 31.5678 38.8409 31.5678H16.0261Z" fill="black"/>
</svg>
