<svg width="16" height="16" viewBox="0 0 16 16" fill="none" xmlns="http://www.w3.org/2000/svg">
<path d="M13.5818 0.974375L1.38842 13.1678C1.13001 13.4262 0.956672 13.7485 0.906552 14.0639C0.856433 14.3792 0.933633 14.6617 1.12117 14.8493C1.30871 15.0368 1.59122 15.114 1.90655 15.0639C2.22189 15.0138 2.54422 14.8404 2.80264 14.582L14.9961 2.38859C15.2545 2.13017 15.4278 1.80784 15.4779 1.49251C15.528 1.17717 15.4508 0.894659 15.2633 0.707122C15.0758 0.519586 14.7933 0.442387 14.4779 0.492507C14.1626 0.542626 13.8403 0.715959 13.5818 0.974375Z" fill="black"/>
<path d="M14.5818 13.3099L2.38842 1.11648C2.13001 0.858064 1.80767 0.68473 1.49234 0.634611C1.177 0.584491 0.894492 0.661691 0.706956 0.849227C0.519419 1.03676 0.442219 1.31927 0.492339 1.63461C0.542459 1.94995 0.715792 2.27228 0.974209 2.53069L13.1676 14.7241C13.426 14.9825 13.7484 15.1559 14.0637 15.206C14.379 15.2561 14.6616 15.1789 14.8491 14.9914C15.0366 14.8038 15.1138 14.5213 15.0637 14.206C15.0136 13.8906 14.8403 13.5683 14.5818 13.3099Z" fill="black"/>
</svg>
